<svg version="1.0" xmlns="http://www.w3.org/2000/svg" width="560" height="792" viewBox="0 0 420 594"><g fill="#fff"><path d="M308.3 81.8c-.7.4-2.5 2.5-4.1 4.6-2.3 3.1-3.6 3.9-6.6 4.1-4.9.3-5.7 1.7-5.4 9 .1 3.3-.2 7.4-.6 9.1-.9 4.2.8 8.2 3.9 9 1.4.3 2.5.9 2.5 1.3 0 .3-2.1 3.3-4.8 6.6-2.6 3.3-5.4 7-6.2 8.2-.8 1.2-3.3 4.8-5.6 8-9.4 13.5-14.8 21.3-20 28.9l-5.5 8.1-9.7.6c-26.2 1.7-63.1 15.8-79.3 30.4-8.4 7.6-11.5 15.2-9.7 23.7.9 4.1 2.1 5.9 8.3 12 4 3.9 8.9 8.2 10.9 9.6 8.2 5.6 7.7 3.4 6 22.5-.9 10.5-1.7 36.6-2.1 68l-.6 51-6.2 8c-7.5 9.7-13.9 16.2-16.8 17.1-1.7.5-3.5-.9-10.1-7.7-10-10.4-31.6-35.4-31.6-36.7 0-.5.9-1.7 2-2.7 1.1-1 2.3-3.5 2.6-5.6.7-4.1 2.1-4.9 8.8-4.9 6.2 0 26.4-4.9 32.5-7.9 3.1-1.5 8.4-4.7 11.9-7 7.5-5 7.8-7.1 1.4-8.5l-4.2-1 .1-14c0-7.8.4-19.2.8-25.5 1-13.5.1-17.5-4.3-19.9-2.6-1.5-6.9-1.7-28.6-1.9l-25.5-.2-.3-14.4c-.3-16.3-.5-16.7-7.5-17.6-4.2-.6-4.2-.6-4.4-5.1-.1-2.5-.2-5-.2-5.6-.1-.7-1-1.4-2.1-1.7-1.8-.5-2 0-2 5.9v6.4h-3.3c-6.6 0-7.1 1.1-7.7 17.6l-.5 14.7-26.5.1c-20 .1-27.1.4-29.1 1.4-5 2.7-5.8 5.6-6.9 25.9-.5 10.3-1 22.9-1 27.9v9.2l-3.7.7c-9.5 1.8-11.5 5.4-6.4 11.6 6.7 8.1 20.4 12 42.8 12l13.2.1 1.1 3.2c2.4 7.3 11.2 11.8 23.4 12 4.5 0 10.1-.2 12.6-.6l4.5-.7 5 6.2c9.9 12.2 22.4 26.4 30.5 34.5 8.9 8.8 11.2 9.7 16.8 6.8 3-1.6 10.4-9.1 14.7-14.8 1.5-2.1 3.1-3.8 3.6-3.8s.9 21.8.9 49.9c0 43.4.2 50 1.5 51.1.9.7 1.9 1 2.3.6.4-.4.7-46.7.7-102.9 0-88.6.3-105.1 1.8-124.2 1-12 2-22.1 2.2-22.3.2-.3 3 .5 6.2 1.6 15.7 5.7 40.3 10.6 61.1 12.4 28.2 2.3 50-1.2 63.3-10.1 5.7-3.8 7.9-8.1 4.1-8.1-1.1 0-2.5.7-3.3 1.6-3.2 3.9-17.8 9.4-29.9 11.3-23.7 3.8-70.7-2.7-101.4-14.2-4.5-1.7-17.6-11.7-22.8-17.6-4.2-4.7-4.8-5.9-4.8-9.8 0-13.1 19.8-27.3 54-38.7 9.2-3 26.8-6.6 32.6-6.6 4.3 0 4.3.1 3.4 2.6-2.5 6.4 2.9 12 15.2 15.9 9 2.9 32.9 6.9 47.4 8 8.7.7 9.2.9 12.5 4.2 3.1 3.3 3.4 3.4 3.7 1.4.2-1.1.8-2.1 1.4-2.1.6 0-.8-1.7-3.1-3.8-4.1-3.7-4.1-3.8-5.1-13.2-1.2-10.9-1.7-13-3.2-13-.7 0-.8 1.4-.5 3.7.4 2.1.9 7.6 1.3 12.1l.7 8.4-11.4-.7c-28.6-1.6-53-8.2-56.1-15.1-1.5-3.2-.5-6 5.1-13.9 2.3-3.3 8.6-12.5 14.1-20.5 5.4-8 10.3-15 10.8-15.6.5-.5 2.2-3 3.8-5.5 1.6-2.4 3.1-4.6 3.4-4.9.3-.3 1.6-1.9 3-3.6 7-8.9 8.5-10.4 9.9-10.4 3.4 0 8.3 18.9 12.6 47.8 1.4 9.4 4.3 20.4 4.5 16.6 0-2.3-3.2-23.7-5.7-36.9-3.8-20.7-3.7-19.9-2.4-19.1 3.3 2.1 8.1-3.4 8.1-9.3 0-2.3 1.1-4 4.2-6.9 3.6-3.4 4.1-4.4 4.2-8.5.1-5-.8-6.1-7.1-9.2-1.8-.9-3.3-2.1-3.3-2.8 0-.7-1.1-2.9-2.5-5-2.5-3.7-5.4-4.7-8.2-2.9zm6.3 6.9c2.3 6 2.9 6.7 6.2 7.5 1.7.5 3.8 1.8 4.6 2.9 1.3 1.9 1.3 2.5-.1 5.3-.8 1.7-2.8 3.9-4.4 4.8-2.5 1.5-2.9 2.3-2.9 6.1 0 2.4-.6 5.1-1.3 6.1-1.9 2.6-5.2 1.3-6.7-2.5-2.2-5.1-3.4-5.8-9.3-5.2-4.5.5-5.5.3-6.1-1.2-.4-1.1.3-2.6 2.4-4.5l3-2.8-2.6-1.7c-2.1-1.3-2.5-2.3-2.2-5.3.3-3.6.4-3.7 4.1-3.4 3.3.3 3.9 0 5.5-2.9 4.1-7.7 7.5-8.8 9.8-3.2zM106.3 251.9c1.6.1 1.7 1.2 1.5 13.3l-.3 13.3h-17l-.3-13.2c-.2-11.7-.1-13.2 1.5-13.5 1.5-.3 9.6-.2 14.6.1zm58.8 34.2c2 2 2.1 2.9 1.5 11.3-.3 5-.9 16.4-1.2 25.2l-.6 16.1-41.7.2c-22.9.1-54 .7-69.1 1.5-15.1.7-27.8 1.1-28.2.7-.3-.3-.4-6.6-.1-13.9.5-10.7.9-13.2 2-13.2.9 0 2.8-1.1 4.5-2.5 4.1-3.5 6.7-3.1 11.8 1.6 5.7 5.2 8.4 6.2 14 5.4 5.2-.8 6.9-1.6 12.9-6.2 2.4-1.8 5.1-3.3 5.9-3.3.8 0 3.5 2.1 6.1 4.6 6.9 7 9.1 8.4 12.5 8.4 3.7-.1 5-1 14.2-10 3.9-3.9 7.9-7 8.7-7 .9 0 4.2 2.2 7.2 5 3 2.7 6.5 5.2 7.8 5.5 5 1.3 19.3-5.7 27.3-13.3 1.6-1.6 1.8-4.8.4-5.7-.6-.4-3 .9-5.3 2.7-5.6 4.6-12.3 8.3-17.4 9.9l-4.3 1.2-4.9-4.7c-9.7-9-12.1-8.7-23.3 2.4-5.1 5.1-8.8 8-10.2 8-1.3 0-4.5-2.3-8.3-6-7.7-7.5-11.8-8.2-18.4-2.9-8.9 7-14.9 7.6-21 2-5.8-5.5-9-6.7-14-5.2-2.1.6-3.9 1.6-3.9 2 0 .5-.7 1.2-1.6 1.5-1.5.6-1.6-.5-1.2-9.5.3-9.1.6-10.3 2.7-12 2.2-1.8 5.2-1.9 67.7-1.9 65.2 0 65.4 0 67.5 2.1zm-1.2 59.6c3.5.9.6 3.5-3.3 2.8-2.2-.3-2.5-.3-1.1.3 1.8.8 1.6 1-1.5 2.5-2.1 1-5.2 1.5-7.7 1.3-3.2-.2-4 0-3.6 1 .3.8.1 1.4-.5 1.4s-1.3-.6-1.5-1.3c-.4-.7-.6-.6-.6.5-.2 3.1-12 4.5-50.1 6-37.4 1.5-45.9 1.5-55.2.5-7.7-.8-9.8-1.5-9.8-3.1 0-.7-.4-.6-.9.3-1.1 1.7-4.6 0-7.9-3.7-1.8-2.1-2.1-2.3-1.6-.7.6 1.8.4 1.7-2-.5l-2.7-2.5 2.8-.7c6.2-1.7 25.2-3.1 50.3-3.8 33.7-.9 94-1.1 96.9-.3zm-13.4 8.3c-.3.5-1.1 1-1.6 1-.6 0-.7-.5-.4-1 .3-.6 1.1-1 1.6-1 .6 0 .7.4.4 1z"/><path d="M153.1 348.4c-.9 1.1-.7 1.5.9 1.9 1.2.3 1.8.1 1.4-.5-.4-.6 0-1.4.7-1.9 1.1-.7 1.1-.9-.2-.9-.9 0-2.2.6-2.8 1.4zM22.1 353.9c-1 .6-.9 1 .3 1.4.8.3 1.8.2 2.1-.3.8-1.3-.9-2-2.4-1.1zM125.8 356.7c.7.3 1.6.2 1.9-.1.4-.3-.2-.6-1.3-.5-1.1 0-1.4.3-.6.6zM97.7 218.7c-2.2 2.5-2.2 8.6-.1 10.4 1.4 1.1 1.8 1 3-.6 1.7-2.3 1.7-5 .1-8.8-1.2-2.8-1.3-2.8-3-1zM193.2 220.3c-4.1 4.4-1.9 13.7 3.2 13.7 1.9 0 2.2-.4 1.9-2.4-.6-2.7 1.3-4.4 3-2.7.9.9.8 1.6-.1 3.1-.7 1.1-.8 2-.2 2 .5 0 1.7-1.4 2.6-3.1 4.3-8.3-4.3-17.1-10.4-10.6zM334.5 222c-.3.5.3 1 1.4 1 1.2 0 2.1.7 2.1 1.5 0 1.8-2.1 2-3.8.3-1.7-1.7-1.5.4.2 2.7 1.2 1.6 1.6 1.7 3 .6 1.9-1.6 2.1-4.2.4-5.9-1.5-1.5-2.5-1.5-3.3-.2zM289.2 230c-3.8 3.6-2.4 12.4 2.3 13.6 6.1 1.5 10.5-3.1 9.1-9.7-1.1-5.8-7.2-7.8-11.4-3.9zm4.7 10.6c-1.4 1.4-1.7 1.4-2.9 0-1-1.3-1-1.9 0-3.2 1.2-1.4 1.5-1.4 2.9 0 1.4 1.5 1.4 1.7 0 3.2zM344.7 231.5c-1.6 1.2-1.2 2.2 5.1 11.6 26.9 40.9 41.2 97.3 51.7 204.4 3.3 33.5 6.4 61.1 7.1 63 .8 1.9 2.3 1.9 3.1 0 .3-.9-.4-10.7-1.6-21.8-1.2-11.1-3.3-31.2-4.7-44.7-7.5-72.8-14.5-111.7-26.8-149.1-5.7-17.3-10.8-29.6-17.5-41.8-2.3-4.1-4.1-7.5-4.1-7.6 0-.4-6.7-10.3-8.8-12.9-1.5-2-2.1-2.2-3.5-1.1zM340.6 340.6c-1.3 1.2-1.6 3.9-1.6 12.7 0 14.9-5.3 104.3-6.5 109.3-.3 1.3-1.8 2.5-4.4 3.4-6.2 2-8.6 6.1-8.6 14.5 0 5.9.4 7.5 2.3 10 4.7 6 11.4 7.2 17.2 3.2 7.9-5.3 9.2-16.1 3-23.8l-3.3-4.1 1.1-9.7c1.3-11.2 2.7-31.8 4.3-62.6.6-12.1 1.5-28.5 1.9-36.5.7-12.6.6-14.7-.7-16.3-2-2.1-2.7-2.1-4.7-.1z"/></g></svg>