<svg version="1.0" xmlns="http://www.w3.org/2000/svg" width="901.333" height="492" viewBox="0 0 676 369"><path d="M491.3 15.1c-15.2 5.9-23.8 26-18.5 43.6 5.6 18.4 21.1 27.1 36.6 20.8 1.7-.8 1.8-.4 1.1 6.2-.8 7.8.1 9.4 3.7 6.9 1.2-.9 2.8-1.6 3.5-1.6 1.3 0 7.3 12 9.3 18.7 1.5 4.9.7 10.1-2 13.6-1.9 2.4-2.2 2.5-4.8 1.1-4.9-2.5-11.2-1.2-11.2 2.5 0 2.7 2.4 4.3 7.5 4.9 4.1.4 4.5.7 4.5 3.1 0 1.5-1.1 4.7-2.4 7.1-6.4 11.7-7.7 15-7.8 19.8 0 5.1 3.1 12.6 7.8 18.9 1.3 1.7 2.4 3.4 2.4 3.7 0 1.1-4.6.6-5.7-.5-.6-.6-1.9-.8-2.9-.5-1.7.5-1.9 2.1-2.2 16.8-.2 9-.6 18.8-1 21.8l-.7 5.4-3.7-5.2c-4.4-6-16.2-26.6-17.3-30-.7-2.3-.8-2.3-10.8-1.7-5.6.4-10.5 1-11 1.4-.4.4-1.4 11.3-2.1 24.2-1.3 21.4-4.5 46.4-6.5 51.4-.8 1.9-1.6 2-11.2 1.8-5.7-.1-11.8-.2-13.5-.3h-3.1l.5-9.8c.2-5.3.6-9.9.8-10.1.2-.2 5.2-.7 11.1-1l10.8-.6.3-10.6c.2-8-.1-10.8-1-11.1-.7-.3-5.5.2-10.7.9-5.1.8-9.5 1.2-9.7 1-.2-.2-.1-5 .4-10.7l.7-10.4 12-1.8c6.6-1.1 13-2.1 14.3-2.4 2.1-.4 2.2-.8 2.2-12.8 0-9.6-.3-12.6-1.4-13.6-1.2-.9-4.2-.9-13.3-.1-13 1.3-37.5 4-41 4.7-2.6.5-2.7 1.1-4.3 25.2-.6 8.9-1.3 18.2-1.6 20.6l-.6 4.4-6.1-2.9c-3.4-1.6-8.7-3.1-11.9-3.5-3.2-.4-5.8-1-5.8-1.3 0-.4 2.4-1.7 5.3-2.9 12.7-5.4 18.6-12.6 19.5-23.9.4-5.4.1-6.8-1.8-9.6-3.5-5.1-8.8-8.3-18-10.7-10.5-2.7-22.6-3.6-30.4-2.1-3.2.6-9.2 2.6-13.5 4.5l-7.6 3.5-.6 6.8c-.4 3.7-.7 10.6-.8 15.3-.1 5.1-.5 7.9-1 7-1.6-2.9-5.3-19.3-5.5-24.4l-.1-5.1-19.5.2-19.5.3-2.4 10.2-2.4 10.3-1.7-5.6c-2.8-9.4-10.3-18.6-18.6-22.8-6.2-3.2-18.7-5.4-26.9-4.7-8 .7-17.9 3.7-22.7 6.9-2.8 2-3.4 3-4 7.7-1.3 10.2-3 20.5-3.5 22-.9 2.7-4.4-10.4-5-18.7-.5-6.5-.2-9.3 1.1-12.8 2.1-5.5 8.8-11.5 15.3-14 10.9-4 19.7-11.6 20.9-18 .6-3.2-.2-8.3-2.1-12.8-.6-1.4-.2-1.7 1.9-1.7 3.2 0 3.2-.8 0-7.1-1.4-2.8-2.4-5.2-2.2-5.3l8-4c17.1-8.5 27.3-24.1 28.5-43.7.7-10.8-1-16.7-7.5-26.3-8-11.9-17.4-16.6-33.2-16.6-14.3 0-25.1 5-32.4 14.9-7.4 10.1-12.6 26-12.6 38.8 0 7 .4 8.8 3.2 14.4 5.6 11.2 15.4 19.1 27.5 22 2.6.7 4.9 1.3 5.1 1.5.2.1-.6 2.1-1.8 4.4-3 5.9-2.3 7 4.8 7 5.2 0 5.9.2 7.4 2.7 2.3 4 3 8.6 1.9 11.5-1.7 4.6-8 9.8-16.6 13.8-11.4 5.2-15.3 8.4-18.4 15l-2.6 5.5-8.5-.3c-4.7-.2-14 0-20.8.3l-12.3.7-3 5.9c-1.6 3.2-3.1 5.9-3.4 5.9-.2 0-2.3-2.4-4.7-5.3-4-4.9-4.5-6.2-6.8-17.7-1.8-9.2-2.1-12.5-1.2-12.8 1.9-.6 1.4-2.9-.7-3.5-1.5-.4-2.5-3.1-5-14.3-3.8-16.7-5.3-22.2-9.1-33.4-1.6-4.7-2.7-8.6-2.5-8.8.2-.2 1.4.3 2.7 1.2 1.2.9 3 1.6 4 1.6 2.4 0 2.3-2.7-.2-3.5-2.9-.9-2.4-2.2 1.1-3 2.1-.5 2.9-1.2 2.6-2.3-.3-1.8-.4-1.8-5.6-.7l-3.4.7 2.1-3.5c1.2-1.9 2.2-3.7 2.2-4.1 0-1.5-2.6-.3-4.6 2.1l-2.2 2.8-.7-3c-1.1-4.9-1.4-5.5-2.6-5.5-.8 0-1 1.2-.6 3.4.7 4.2.2 4.8-2.9 3.4-3.9-1.8-4.2.2-.5 3.3 1.9 1.6 3.3 3 3 3.3-.2.2-2.6 1-5.4 1.8-3.1.8-5 1.9-5 2.8 0 1.6 1.6 1.8 5.2.6 2.2-.7 2.3-.6 1.6 4.1-.8 6.7-5.2 17.3-13.9 33.9-4.1 7.8-9 18.6-10.8 24.1-5.2 15.3-6.4 17.8-9.6 19.6-1.6 1-4.8 3.6-7.1 5.8l-4.2 4 .7 13.4c.3 7.3 1.4 19.6 2.3 27.2 1 8.6 1.7 24.4 1.9 42.2.1 15.6.6 28.7 1.1 29.1 1.4 1.3 35.1 1.8 36.8.6 1.4-1 1.3-2.4-.5-12.1-1.2-6.4-2.4-17.5-2.7-26.7l-.6-15.6 8.4-4.3c8.6-4.2 18.5-10.5 22.8-14.3l2.4-2.1-.7 2.9c-.4 1.7-2.7 8-5 14-2.4 6.1-7.8 21.5-12.1 34.3-6.9 20.2-7.7 23.4-6.5 24.8 1.3 1.5 3.6 1.7 20.6 1.4 10.6-.2 19.5-.7 19.8-1 .7-.7 4.6-13.8 9.7-32.4 4.2-15.6 5.4-17.8 9.8-17.3 3.1.4 3.5 1.9 6.1 21.8 2.7 21 3.6 26 4.7 27.1 1.4 1.4 18.9 3.8 30.9 4.3 5.7.2 10.7.7 11.2 1 .5.3 4.9 0 9.7-.6l8.8-1.2-.5-13.3c-.3-7.3-.4-13.3-.2-13.3s2.9 3.9 6 8.7c7.3 11.4 12.2 17.3 14.3 17.3.9 0 2.7-1.2 4-2.6 1.6-1.6 3-2.3 4-1.8.9.4 5.7.9 10.6 1.2 6.9.3 9.3.1 10.2-.9.6-.8 2-5.7 3.2-10.9 2.8-12.3 9.2-33.3 10.6-34.2 3.2-2.3 4.4.5 9 21.2 2.5 11.2 4.8 20.7 5 21.1.9 1.4 7.3 1.7 18.4.7 6.3-.5 11.8-1.1 12.3-1.4.5-.3 5.2-.7 10.6-.9 12.2-.4 25.3-3.5 35.6-8.5l7.9-3.9-.6 5.9c-.3 3.9-.1 6.2.6 6.8 1.4 1.1 33.9 2.4 59.4 2.3 10.2 0 21.7.4 25.6.9 6 .9 7.3.8 8.8-.6 2.1-1.9 2.1-.7-.6-25.6-.8-7.5-1.5-14.9-1.5-16.5v-2.7l4.1 3.9c5.6 5.4 17.4 21.3 21.8 29.4l3.6 6.6 8 .8c10.1 1.1 14-.1 13.1-3.8-.8-3.2-.4-3.1 5.8.4 2.8 1.6 9.8 4.4 15.6 6.1 9.1 2.8 12.1 3.2 22.1 3.3 11 .1 12-.1 17.4-2.9 16-8.1 24.2-23 21.6-39.5-1.5-9-4.6-13.1-13.2-17.3-7.2-3.6-15.4-5.6-29.2-7.4-4.2-.5-8.4-1.5-9.2-2.2-2.4-2-1.8-5.9 1.4-9.1 2.5-2.4 3.8-2.9 7.9-2.9 7.9 0 13.6 3 19.2 10l2 2.5 2.2-3c2.7-3.7 5.8-6.7 12.3-12.3 4.7-4 4.9-4.4 3.1-5.5-1-.7-2.6-2.1-3.5-3.2-.9-1-5.2-5.7-9.6-10.3-6.3-6.6-9.6-9.1-15.3-11.9l-7.4-3.5 7.9-4.5c12.8-7.3 18.2-11.9 20.9-17.7 1.3-2.8 2.4-6.3 2.4-7.8 0-2.3.5-2.7 3.3-3l3.2-.3v-13.9l7.3-4.1c21.6-11.9 35.3-31.9 35.3-51.2 0-14.9-8.7-26.3-20.1-26.3-1.9 0-5.5.9-7.9 2-6 2.8-8.8 2.5-17.3-1.5-4-1.9-9.9-4.1-13-4.7-5.1-1.1-6.3-1-10.5.8-3.1 1.3-5.8 3.3-7.8 6.1-2.4 3.3-4.1 4.5-8.5 5.8-7.4 2.3-10.5 4-15.6 8.7-9.1 8.4-14.5 20.4-14.5 32.6 0 8.1 1.1 12.6 4.8 18.9l2.4 4.1-3.3.7c-3.6.8-7.8 3.1-7.8 4.4 0 .4 1.1 1.3 2.5 1.9l2.5 1.2-2.5 3.8c-1.4 2.1-4.1 7.6-6 12.3-2.9 7-3.5 9.6-3.5 15.9 0 6.9.8 12.3 2.4 16 .7 1.8-2.8 3.5-8.9 4.5-4.7.7-6.5-.8-13.1-11-3.5-5.3-3.9-6.7-3.9-12 0-5.4.5-7 4.2-13.1 4.4-7.3 6.7-14.1 5.7-16.8-.4-.9.4-2.8 1.9-4.5 1.4-1.7 3.3-5.1 4.3-7.6 2.2-5.8 1-11.9-4.5-22.5-3.5-6.9-3.7-7.7-2.4-9.7 1.4-2 1.2-2.5-2.6-6.6-2.3-2.4-4.1-4.7-4.1-4.9 0-.3 1.3-1.1 3-1.8 4.1-1.7 9.7-8.2 12.9-14.9 2.2-4.7 2.6-7 2.6-14.1 0-7.6-.4-9.3-3.3-15.2-4-8.1-9.4-13.2-16.3-15.2-7.3-2.2-18.2-2-24.6.5zm24.2 4.8c5.6 2.5 10.1 6.6 13.3 12 2.4 4.1 2.7 5.6 2.7 13.6 0 7.6-.4 9.8-2.5 13.8-6.4 12.6-26.3 22-36.4 17.2-4.8-2.3-11.2-9.6-14.5-16.5-2.1-4.5-2.5-7-2.6-13.6 0-7 .4-8.8 3-13.9 3.3-6.4 8.2-10.9 14.1-13 5.7-2.1 18-1.9 22.9.4zM234.9 30c7.4 1.4 11.5 3.6 16.7 8.8 5.6 5.8 10.3 15.2 11.1 22.3 1.8 17.6-10 38.3-26.8 47-6 3.2-7 3.4-16.4 3.4-9.3 0-10.5-.2-16.7-3.3-6.8-3.3-12.7-9.3-17-17.4-5.4-10 1.6-38.7 12.2-50.2 9.5-10.3 21.1-13.6 36.9-10.6zm381.7 24.8c10.2 4.7 13.3 5.1 19.5 2.2 13-5.9 22.9 2.8 22.9 20 0 21.4-16.2 43-38.5 51.6-3.9 1.4-4.3 1.4-9.8-1.1l-5.7-2.7 3.7-4.3c4.9-5.5 11.7-16.9 13.8-23.1 3.1-9.2-.4-18.4-10.8-28-6.5-6.2-13.5-10.2-19.4-11.1l-3.2-.6 2-2.6c4.9-6.3 12.2-6.4 25.5-.3zm-18.1 10c6.9 3.3 15.5 11.6 18.5 17.7 2.4 4.9 2.6 12.2.5 17.2-3.1 7.3-12.3 19.8-17.9 24.1-11.4 8.8-19.2 9.7-31.3 3.7-7.4-3.7-7.5-3.8-11-11.1-3.4-7.2-3.5-7.8-3.1-16.8.3-8.4.8-10.2 4.2-17.2 4.8-9.7 11.6-16.8 17.9-18.6 8.4-2.4 15.5-2.1 22.2 1zM518 82.5c1.3 1.4 2.2 2.6 1.9 2.8-1.7 1.2-6 3-6.3 2.6-.6-.7.6-7.9 1.3-7.9.4 0 1.8 1.1 3.1 2.5zm-404 27.6c2.2 7.3 2 8.9-.8 8.9-.9.1-4.2.9-7.2 2-3 1-5.6 1.7-5.8 1.6-.3-.3 7.4-20.2 8.5-22 1-1.5 3.1 2.2 5.3 9.5zm113 9.1c3.2 3.5 2.5 4.5-3.2 4.4-5.8-.1-6.9-1.5-3.9-4.5 2.7-2.7 4.5-2.6 7.1.1zm-109.6 3.7c.4.5.9 2.9 1.2 5.3l.6 4.3-6.2 1.2c-3.4.6-10.1 3.1-14.9 5.4-4.7 2.4-9 4.5-9.5 4.7-.5.3.9-2.8 3-6.8 3.5-6.4 4.5-7.5 9.7-10.1 7.6-3.9 15.1-5.7 16.1-4zM518 127c.8.5 1.2 1.2.8 1.5-.9.9-5.9-.6-5.2-1.6.7-1.2 2.5-1.1 4.4.1zm40.8 1.2c1.4 1.4 1.6 4.4.3 5.3-1 .6-9-4.5-9.1-5.8 0-1.2 7.5-.8 8.8.5zm46.9 1.4c4.8 1.9 5.1 2.4 2.4 4.8-2.5 2.3-6.3 11.2-5.9 13.9.4 2.8 3.4 3.4 5.9 1.1 2.5-2.3 3.3-1.3 2.4 3.2-1 5.7-9.8 13.7-22.5 20.7-9.5 5.2-11.1 5.7-16.6 5.7-7.9 0-14.3 2-19.3 5.9l-4 3.2-1.5-2.8c-2.8-5.5-4.9-14.9-4.9-21.8.1-7.7 3.1-16.6 8.4-25l2.9-4.6 2.9 2c4 2.9 5 2.7 6.7-1.5 1.7-4 .9-3.9 11.9-.8 7.5 2.1 16.7.9 22.3-3 4.5-3 3.7-2.9 8.9-1zm11.2 8c2.9 3.7 1.8 5.2-4 5.2-2.7 0-4.9-.3-4.9-.5 0-1.6 4.4-7.3 5.5-7.3.7 0 2.3 1.2 3.4 2.6zM122 142.7c.7 3.2 1.4 6.1 1.6 6.5.2.3-2.2 1.2-5.3 1.8-8.4 1.6-23.8 6.7-30.6 10.2-3.3 1.6-6.1 2.7-6.4 2.4-.8-.7 2.8-10.9 4.5-12.9 2.3-2.6 15.6-9.7 22.1-11.8 3.1-1 7.3-1.8 9.3-1.8l3.7-.1 1.1 5.7zm3 13.9c.6 1.4 1.3 4.2 1.6 6.3l.6 3.8-4.8.5c-2.7.2-8.7 2.2-13.3 4.2-8.2 3.8-8.5 3.8-17 3.2-4.7-.4-10.2-1.1-12.1-1.5l-3.5-.7 4-2.6c10.2-6.4 22.6-11.4 35.6-14.3 3.5-.7 6.7-1.4 7.2-1.4.4-.1 1.2 1.1 1.7 2.5zm3.4 15c.3.9.6 2.5.6 3.6 0 1.8-.4 2-3.7 1.4-2.1-.3-6.3-.6-9.2-.6-6.6 0-5.9-1.3 2.1-4.1 6.6-2.3 9.4-2.4 10.2-.3zm119.1 4.6c15.5 3.3 24 13.6 23.9 29.3 0 11.5-7.3 19.8-25.9 29.5-10.7 5.5-12.4 7.1-10.6 9.9.6 1 1.3 1 2.8.2 1.8-.9 3 .2 11.4 10.7 5.2 6.4 12.9 15.8 17.1 20.9l7.8 9.2-3.3 2.4c-1.7 1.3-5.4 3.6-8.1 5.2l-5 2.8-3.4-3.9c-5.9-6.7-18.2-25.8-18.2-28.1 0-1.9-.6-2.3-3-2.3-2.2 0-3 .5-3 1.8 0 1 .5 2.3 1 2.8.7.7.9 7.2.8 17.5l-.3 16.4-6.3.9c-3.4.5-6.5.7-6.7.4-.6-.6-3.4-14.7-7-34.8-1.4-8-4.1-21.2-6-29.3-2.9-12.4-3.3-15.5-2.5-19.5.5-2.6 1.7-11.9 2.6-20.7 1-8.8 2.2-16.5 2.8-17.1 1.7-1.8 11.4-4.7 18.1-5.4 6.7-.8 13.5-.4 21 1.2zm-164 2.6c-.6.5-3.9 2.1-7.5 3.6-8 3.3-12.9 7.1-11.4 8.6.8.8 2.3.1 5.2-2.3 2.3-2 7-4.4 11.1-5.7 3.9-1.2 7.1-2.7 7.1-3.3 0-1 19.7-.4 35.4 1 6.4.5 7.2.9 10.7 4.6 5.3 5.4 6.5 10.2 4.4 17.5-2.1 7.1-6.4 14-11.2 17.8-7.6 6.1-16.8 11.8-26.1 16.2l-9.5 4.5.6 16.1c.3 8.8 1.3 19.9 2.1 24.6 2.5 13.2 3.7 12-12.4 12H68v-19.8c0-11.9-.8-27.8-2-40.2-1.1-11.3-2.3-26.2-2.6-33.3-.8-14.4-.8-14.5 7.5-19.9 3.2-2 5.8-2.8 9-2.8 2.5 0 4.1.4 3.6.8zm292.3.7c14.7 3.5 20 8.7 18.9 18.8-.3 3-1.1 6.5-1.7 7.7-2.3 4.3-18.8 12.9-33.3 17.4-1.4.4-1.6 1-.9 2.3.8 1.4 2.7 1.7 11.3 1.8 15.7.1 27.6 5 31.2 12.8.8 1.8 2.5 5.4 3.7 8 2.7 5.7 2.3 10.5-1.6 18.3-4.2 8.7-14.9 15.9-30.4 20.3-8.4 2.5-26.7 4.1-25.6 2.3.3-.6-.5-4.1-1.9-7.9-1.3-3.8-5.3-17-8.8-29.4-5.9-20.7-6.3-22.9-5.6-28.4.4-3.3.8-13.3.8-22.2l.1-16.2 3.3-1.7c7.9-4.2 13.1-5.3 23.7-5.3 5.8-.1 13.3.6 16.8 1.4zM188.5 190c1.2 5.8 4.2 18.4 6.8 28 5.7 21.8 15.7 71.9 15.7 79 0 1.9-28.1.3-30-1.6-.4-.5-2-9.3-3.5-19.6s-3.2-20.9-3.9-23.5l-1.2-4.7h-14.6l-6 18.4c-3.3 10.2-6.7 21-7.6 24.1l-1.6 5.6-15.4.7c-8.5.4-15.7.5-16 .1-.6-.6 4-14.7 15.9-48.8 3.8-10.9 7.6-22.5 8.5-25.9.8-3.4 2.3-7.4 3.3-8.8 2.7-3.9 4.1-7.8 4.1-11.1 0-1.6 2-7.2 4.5-12.4 5.3-11 3.5-10.3 24.9-10.1l14 .1 2.1 10.5zm268.4-5.8c0 2.4-.4 6.5-.7 9.2l-.7 4.9-5 1.2c-8.2 1.9-17 3.5-19.7 3.5-2.5 0-2.5 0-3.8 13.7-1.2 12.9-1.2 13.7.6 15 1 .7 2.5 1.1 3.3.9.9-.3 5.2-.8 9.6-1.2l8-.6-.3 4.8c-.6 9.4-.5 9.4-7 9.4-3.1 0-8 .3-10.8.6l-5.2.7-.1 8.4c0 4.6-.3 9.9-.6 11.7-1.1 5.5.5 6.2 15.5 6.8 7.2.3 13.3.8 13.6 1.1.3.3-.3 4.3-1.3 8.9l-1.9 8.3h-19.5c-10.8 0-21.8-.1-24.5-.3l-4.9-.4.2-6.4c.1-5.4.6-6.9 2.9-9.7 8-9.5 8.6-26.3 1.1-36.4-2.2-3-2.3-3.7-1.5-9.5.5-3.5 1.4-14.8 2.1-25.3l1.2-19 12-1.2c41.8-4.1 37.5-4.2 37.4.9zm122.6.2c9.7 2 17.5 6.8 26.5 16.2 4.4 4.6 8 8.8 8 9.3s-1.5 1.8-3.2 2.9c-1.8 1.2-4.6 3.4-6.2 5.1l-2.9 3-4-3.4c-5.4-4.7-12.3-6.1-19.4-4-6.9 2-10.2 5-11 9.8-1.3 8.2 4.5 12.1 19.6 13.1 14.2.9 24.4 6.1 29.7 15.2 2.4 4.1 2.6 5.1 2 11.2-.4 3.7-1.8 9.2-3.2 12.2-3.9 8.6-13.3 17.1-19.3 17.5-1.4.1-4.5.5-6.7.9-4.7.8-20.3-1.5-30.4-4.6-8.1-2.4-18.7-8.6-19.4-11.3-1.3-4.7-.5-6.4 5.5-11.9 3.4-3.2 7.2-6.4 8.6-7.3 2.4-1.6 2.5-1.5 6.8 3.4 13.4 15.3 37.3 11.7 27.9-4.2-1.4-2.6-3.6-5.2-4.8-6-2.6-1.7-14.8-6.1-23.9-8.7-8.8-2.4-13.4-4.8-17.5-9.1l-3.3-3.4 1.4-14.7 1.3-14.7 5.8-5.8c6.2-6.3 12-9.7 18.8-11 6-1.2 6.5-1.2 13.3.3zm-36 8.5c-1.3 1.4-1.5 1-1.5-3.4l.1-5 1.5 3.4c1.3 3.1 1.3 3.6-.1 5zm-225.9 4.7c4.6 22.4 17.4 71 22.9 86.3.8 2.4 1.5 4.7 1.5 5.1 0 1-15.9 3.3-20.4 2.8l-4-.3-4.7-19.5c-2.6-10.7-4.5-19.9-4.2-20.6.4-1.2-12.7-2.8-13.9-1.6-.8.9-10.3 32.5-11.2 37.3-.8 4.7-2.2 5.8-8.2 6.5l-4.9.6 4.8-3.2c4.7-3.2 6-6.1 3.4-7.7-.7-.4-4.7-4.8-8.9-9.7l-7.6-8.8 1.4-3.7c4-10.9 16.8-55 18.5-63.6 1.1-5.4 2.5-10.3 3.2-10.7.7-.4 7.7-.6 15.7-.4l14.4.3 2.2 10.9zm219-1.8c-.4 4.2-1.4 15.1-2.3 24.2-1.2 12.6-1.4 22.6-1 42.2.6 24.6.6 25.8-1.2 25.8-1 0-3.2.3-4.8.6-2.7.5-3.1.2-5.7-4.6-4.2-7.8-16.5-23.6-25.5-32.8-6.3-6.5-8.5-8.2-10.1-7.7-1.4.5-1.8 1.3-1.5 3.3.6 3.9 2.5 30.4 2.8 38.5l.2 6.9-13.9-.2c-13.7-.1-16.1-.4-15.2-1.9.5-.7 5.4-29.3 8.1-46.8.8-5.6 1.8-18.5 2.2-28.7l.6-18.5 4.6-.7c9.5-1.3 7.2-3.4 19.4 17.8 7.4 13 18.1 27.3 20.3 27.3 1.4 0 1.8-.6 1.6-2.5-.6-4.4-.4-37.3.3-43.6l.6-6 10.6-.2 10.5-.2-.6 7.8zM265 240.5c-2.7 8.7-5 16.5-5 17.1 0 3.3-2.2 1.6-8.8-6.5-4-4.9-7.2-9.2-7.2-9.5 0-.3 3.3-2.1 7.3-4 4.7-2.3 9.1-5.4 12.7-9.1 3-3 5.6-5.2 5.7-4.8.2.5-1.9 8-4.7 16.8zm278.2 1.5c2.3 1.7 6.7 3.7 9.7 4.6 19.8 5.5 25.3 7.6 29.1 11.1 6.5 5.8 4.5 10.1-3.9 8.2-7.5-1.7-11.5-4.3-14.4-9.7-4.5-8.3-4.5-8.3-14.1-.7-4.7 3.6-8.8 7.1-9.1 7.6-1.6 2.5-2.2-.2-2.3-11.6-.2-6.9 0-12.5.3-12.5s2.4 1.4 4.7 3z"/><path d="M485.2 29.2c-.7.7-1.2 3-1.2 5.2 0 2.1.3 3.6.7 3.2.7-.7 3.3-7.6 3.3-8.9 0-1.1-1.5-.8-2.8.5zM209.9 36.8c-7 4.5-13.6 13.3-12.3 16.6 1 2.6 2.9 1.8 4.6-1.8 2.2-4.5 7.2-10 11.4-12.6 3.4-2.1 4.6-5 2.1-5-.7 0-3.3 1.3-5.8 2.8zM194 61.9c0 2 1.3 4.1 2.5 4.1 2.1 0 2.8-1.9 1.5-3.5-1.4-1.7-4-2-4-.6zM644.8 62.6c-1 .9 5.3 12.5 6.4 11.8 1.4-.9.2-6-2.3-9.5-2-2.9-3-3.4-4.1-2.3zM648.5 81c-.4.7-.3 1.6.2 2.1 1.2 1.2 4.5 0 4-1.5s-3.4-1.9-4.2-.6zM577.4 68.4c-5.1 2.4-8.8 6.1-7.8 7.8.3.5 1.6.2 2.7-.6 4.3-3.1 11.2-6.2 13-5.8 2.3.5 2.2-1.5-.2-2.8-2.5-1.3-1.7-1.4-7.7 1.4zM563.7 82.6c-1.6 1.6-.6 3.4 1.9 3.4 1.9 0 2.5-.5 2.2-1.7-.3-1.9-2.9-2.9-4.1-1.7zM222.1 179c-4.5 1.1-11.1 4.1-11.1 5.2 0 1.2 3.2.9 6-.7 1.4-.8 5.1-1.4 8.2-1.5 5.7 0 8.3-1.4 5.7-3.1-1.6-1-4.1-1-8.8.1zM237.5 192.7c-1.1.3-4.1 1.4-6.8 2.5l-4.8 2.1.3 14c.4 17.8.4 17.8 12.2 11.8 12-6.1 19.8-15.4 18-21.4-2-6.9-10.7-11-18.9-9zm11.9 4.5c1.4.6 2.8 1.9 3.1 2.9.9 2.6-2.9 9.2-7.1 12.7-5.1 4.2-13.4 8.6-14.4 7.6-1.4-1.6-2-20.2-.7-21.2 3.8-3 14.6-4.1 19.1-2zM97.5 192.6c-1.6.3-5.1 1.4-7.7 2.6l-4.8 2.1v12.2c0 15.3.4 15.8 9.2 12.4 7.3-2.9 18.1-12.3 19.8-17.3 2.6-8.1-4.9-13.6-16.5-12zm9.9 3.4c3 1.1 3.4 4.5 1.2 8.8-1.9 3.6-9.3 10.6-13.3 12.6-5.9 2.9-6.1 2.6-6.5-8-.3-10.7-.3-10.8 6.4-12.9 5.3-1.7 8.9-1.8 12.2-.5zM87.1 275.2c.2 10.9.9 15 2.8 15.6 1 .3 1.2-.6.8-4.4-.4-2.7-.9-8.4-1.2-12.7-.4-4.2-1.1-7.7-1.6-7.7s-.8 4.2-.8 9.2zM354 190.9c-2.4.7-2.4.9-2.1 9.1.1 4.7.7 8.9 1.2 9.5 1.2 1.2 8.9-.8 15.9-4.3 4.4-2.2 5.7-3.4 6.4-6 .7-2.6.5-3.6-.9-5.2-3.1-3.5-13.5-5-20.5-3.1zm13.6 2.6c3 1.2 3.5 1.9 3.2 4.2-.4 3.3-5 6.7-10.4 7.7-2 .4-3.7.6-3.9.4-.2-.2-.5-3-.6-6.3-.3-5.6-.1-6 2.2-6.6 3.9-1.1 5.7-1 9.5.6zM361.1 240.8l-3.4 1.7v30l4.8-.3c6.9-.5 16.4-4.6 22.1-9.6 4.7-4.2 4.9-4.6 4.8-9.4 0-2.8-.7-5.8-1.4-6.7-1.6-1.9-6.6-4.2-13.5-6.1-6.6-1.8-9.3-1.7-13.4.4zm13.1 3.4c9.5 2.8 12.6 10.4 6.6 16-3.7 3.4-10.8 7.2-15.5 8.2l-3.1.7-.4-11.8c-.3-9.5-.1-12 1.1-13.1 1.9-1.5 6.2-1.5 11.3 0zM399.6 257.2c-1 5-6.1 12.5-10.6 15.3-2.2 1.4-4.5 2.5-5.1 2.5-.6 0-.9.6-.7 1.2 2.2 6.6 18.7-9.2 19.1-18.3.3-4.3-1.9-4.8-2.7-.7zM168.6 204l-4.4 4-3-1.7c-2.5-1.4-3.4-1.5-5.6-.5-3.3 1.5-4.9 5.3-3.6 8.8 1.2 3 14 17.4 15.6 17.4 1.6 0 10.1-13.5 11.9-19.1 1.8-5.3 1.5-8.8-1.1-11.3-2.5-2.5-5.1-1.9-9.8 2.4zm7.4 1.5c.6 1.7.5 3.7-.6 6.6-1.7 4.9-6.5 12.9-7.7 12.9-1.7 0-9.9-7.4-11.3-10.2-3-5.8 1.4-9.4 5.4-4.3 1.1 1.4 2.4 2.5 3 2.5.6 0 2.6-2.3 4.6-5 4-5.6 5.2-6.1 6.6-2.5zM195.9 249.5c-.4 3.3 4.7 35.9 6.1 39.2 1.7 4 3.3 2.7 2.6-2-.4-2.3-1.8-11.2-3.2-19.7-1.5-9.5-3-16-3.9-16.9-.8-.9-1.5-1.1-1.6-.6zM450.8 190.6c-.2 3.2.2 6 .8 6.5 1.8 1.5 2.4-.1 2.4-6.3 0-4.3-.4-5.8-1.4-5.8-1 0-1.5 1.6-1.8 5.6zM562.6 189.4c-4.2 1.6-7.4 4.2-6.3 5.2.3.4 2.9-.3 5.6-1.5 9.2-3.9 22.5-2.1 32.4 4.5 5 3.3 6.3 2.1 1.7-1.7-7.6-6.4-24.7-9.7-33.4-6.5zM305.5 208c-1.1.4-3 2.2-4.3 3.9-2.2 3-2.4 3.1-5.2 1.6-6.6-3.4-10.8-.8-9 5.7 1 3.5 11.1 16.1 13.3 16.6 1.9.4 5.2-3.6 9.1-11.1 4.1-7.8 4.7-13.4 1.8-16-2-1.9-2.8-2-5.7-.7zm3.5 5c0 2.8-3.7 12-5.9 15l-1.9 2.4-2.3-1.9c-3.8-3.4-7.9-9.7-7.9-12.1 0-2.4 0-2.4 3.5-.7 1.9.9 3.5 2 3.5 2.5 0 .4.9.8 2 .8s2-.3 2-.8c0-.4.9-2.2 2-4 2.2-3.6 5-4.3 5-1.2zM327.5 255.7c1.2 3.3 4.4 15.7 5.6 22.1 1 5.6 2.9 8.5 4.5 7 .5-.5-5-24-6.6-28.2-.5-1.4-1.7-2.6-2.6-2.6-1.1 0-1.4.5-.9 1.7zM525.3 190.7c-6.7.5-6.9 2.3-.3 2.3 5 0 5 0 5 3.2-.1 1.8-.7 6.2-1.5 9.8-1.7 7.7-1.9 15-.5 15 1.3 0 1.4-.3 3.5-13.5 1.7-11.3 1.7-16.7 0-17-.5-.1-3.4.1-6.2.2zM563.1 38.5l-3 2.6L558 39c-2.9-2.9-8.4-2.4-8.8.7-.4 2.5 4 11.3 6.9 13.9 2.4 2.1 5.2 1.1 10.5-3.8 4.9-4.5 7.3-10 5.4-12.3-1.9-2.2-5.5-1.8-8.9 1zm-5.4 4c3.2 4 3.9 4.3 4.8 1.5.8-2.5 5-5.4 6.5-4.5 2.2 1.4-3.4 8.3-9.7 11.9-1.5.8-7.3-7.7-7.3-10.6 0-2.9 2.7-2.1 5.7 1.7zM134.5 61.1c-1 3 1.9 5.3 4.7 3.8 2.9-1.5 2-5.3-1.4-5.7-2-.2-2.8.2-3.3 1.9zM71.1 74.4c-1.7 2-.4 5.6 1.8 5.6 2.8 0 4.7-2.8 3.4-4.8-1.4-2.3-3.7-2.6-5.2-.8zM466.7 84.4c-1.4 3.5 2.3 6.7 5 4.5.8-.7 1.3-2.2 1.1-3.3-.4-2.6-5.2-3.5-6.1-1.2zM145.8 88.2c-1.7 1.7-2 2.9-1.5 7.7.6 6.8 3.4 14.1 5.4 14.1 2 0 14.1-7.2 17.6-10.4 2.2-2 2.8-3.4 2.5-5.9-.3-2.8-.7-3.2-3.5-3.5-1.7-.2-4.5.4-6.2 1.2-4.1 2.2-4.8 2-6.3-1.1-1.9-3.8-5.3-4.8-8-2.1zm5 3c.7.7 1.2 2.4 1.2 3.9s.4 3 .8 3.3c.5.3 3.5-.8 6.7-2.5 6.3-3.2 9.4-2.7 6.1 1-2.2 2.5-13.3 9.1-15.1 9.1-2.1 0-4.6-13.6-2.8-15.3.9-1 1.7-.9 3.1.5zM482.1 99.6c-1.1 1.5-2.1 3.3-2.1 4 0 1.7-.5 1.7-3 .4-5.2-2.8-6.9 3.8-2.2 8.5 5.2 5.2 12.6 6.2 14.2 1.9 2.1-5.5.1-16.6-3.1-17.2-.9-.2-2.6.9-3.8 2.4zm4.4 8c0 5.7-.1 5.9-2.7 6.2-1.8.2-3.7-.6-6-2.7-3.8-3.3-3.3-4.8 1.1-3.3 3.5 1.2 4.1.8 4.1-2.8 0-3 .8-4.2 2.4-3.7.6.2 1.1 3 1.1 6.3zM191.1 125.8c-3.3 3.4-4 3.8-7.9 3.4-5-.5-7.2 1-7.2 4.7 0 5.6 11 14.7 16 13.4 4.8-1.3 10.7-17.8 8.4-23.7-1.1-2.9-5.5-1.8-9.3 2.2zm4.9 9.4c-1.1 3-3 6.4-4.1 7.4-1.9 1.7-2.1 1.7-5.5-.1-4.2-2.2-7.8-7-7-9 .8-2.2 5.2-1.8 7.5.6 2.2 2.4 4.1 1.8 4.1-1.2 0-1.1 1.5-3.5 3.3-5.2l3.2-3.2.3 2.6c.2 1.4-.6 5-1.8 8.1zM450.6 124.6c-1 .9-1.5 2.3-1.2 3.1.3.8.6 1.7.6 1.9 0 .2 1.1.4 2.5.4 2.9 0 4.3-2.5 2.8-4.8-1.4-2.3-2.9-2.5-4.7-.6zM55.5 139.1c-1 3 1.8 5.8 4.3 4.3.9-.6 1.7-2.2 1.7-3.5 0-3.4-5-4.1-6-.8zM261.1 142.9c-.7.5-1.1 1.9-.9 3.2.4 3.3 5.2 3.5 5.6.2.4-2.5-2.7-4.6-4.7-3.4zM329 145.5c-1.8 2.2-.8 5 1.9 5 3.2 0 4.9-2.8 3.2-4.9-1.7-2-3.5-2-5.1-.1zM631.7 146.8c-2.6 2.9-2.1 18.2.6 18.2 3.2 0 15.1-4.4 17.7-6.6 5.7-4.9 2.7-9-6.1-8.2-4.3.5-4.9.2-6.9-2.4-2.4-3.3-3.1-3.4-5.3-1zm3.9 3.7c.4.8.1 2.2-.6 3-1.9 2.3 1.6 3.1 5 1.1 3.9-2.2 9.3-2.2 8.8.1-.4 2.2-5.9 5-11.4 5.9-4.1.6-4.2.5-4.9-2.5-1.2-5.6 1.4-12 3.1-7.6zM461 150.9c0 1.2-1.8 4.1-4 6.5-2.2 2.4-4 4.8-4 5.3 0 .9 9.6 8 12.3 9.2.5.2 1.5-.7 2.4-1.8.8-1.2 4.2-5.3 7.5-9.2 7-8.1 6.8-9.3-2-10.2-3.1-.4-7.2-.9-8.9-1.3-2.9-.6-3.3-.4-3.3 1.5zm10.3 2.7c2 .4 3.7 1 3.7 1.5 0 .4-2.5 3.5-5.7 6.8-5.8 6.2-6 6.3-10.7 2.8-1.9-1.4-1.9-1.6 1.7-5.8 2-2.3 3.7-4.6 3.7-5.1 0-1 2.1-1 7.3-.2zM175 153.5c-1.9 2.3-.8 5 2 5 1.9 0 2.6-.6 2.8-2.4.5-3.5-2.6-5.3-4.8-2.6zM409.1 155.3c-2.4 2.9 1.7 7 4.6 4.6.8-.7 1.3-2.2 1.1-3.3-.4-2.5-4-3.3-5.7-1.3zM126 321.7c0 3.9 8.3 11.6 15 13.8 6.7 2.2 12.1 1.5 17.4-2.2l4.1-2.9 4.5 2.8c8.5 5.3 18.6 5 24.6-.7l3.6-3.4 3.4 2.5c9.4 7.2 22 6.8 30.2-.9l2.4-2.2 2 2.8c2.6 3.6 9.1 7.3 15.2 8.7 6.8 1.5 14.4-.2 19.9-4.4l4.3-3.3 3.7 3.2c4 3.4 12.9 6.5 18.9 6.5 4.6 0 9.5-1.7 13.6-4.7l3.4-2.5 3.1 3.2c1.8 1.8 5.7 4.5 8.7 5.9 7.5 3.5 20.4 3.7 26.6.4 3.9-2.1 8.7-6.8 9.6-9.3.2-.8 1.7-.8 5.1.1 5.8 1.4 11.8.7 15.2-1.8l2.6-1.8 4.8 4.6c3.4 3.3 6.7 5.2 11.1 6.8 10.7 3.5 19.5 2.5 28.1-3.5l3.9-2.7 2.3 2.1c4.2 3.9 11.7 6.6 18.7 6.6 6.8 0 9.8-1.1 14.1-5l2.5-2.4 5.7 3c9.3 5.1 19.2 3.9 25.1-3l2.3-2.8 5.4 2.6c7 3.5 17.9 4.2 24.6 1.7 7.9-3 14.6-10.8 12.9-15-1-2.6-3.1-1.6-4.4 2-3.3 8.9-15.2 12.8-28 9-3.5-1.1-5.9-2.5-7.4-4.5-2.9-4-4.4-3.8-6.8 1-4.1 8-13.3 10.4-21.6 5.5-3.1-1.8-4.6-3.5-5.2-5.8-1-4-4.5-4.5-5-.8-.5 3.6-3.1 7-6.5 8.8-6.2 3.1-19.4.8-23.9-4.3-.9-1-2-3.5-2.5-5.4-1.1-4.4-3.4-4.5-4.5-.4-1.8 7-11.6 12.1-21.4 11.1-9.1-.9-20.4-8.5-20.4-13.7 0-.9-.6-2.3-1.4-2.9-1.1-1-1.9-.7-3.5 1-1.2 1.3-2.1 2.6-2.1 3 0 .4-1.7 1.5-3.7 2.4-3.1 1.5-4.4 1.6-8.7.6-3-.7-5.8-2-6.7-3.3-2.3-2.9-4.9-1.7-4.9 2.3 0 3.8-3.1 8.4-7.3 10.6-4 2.1-15.6 2.3-21 .4-5-1.7-10.6-6.7-12.4-10.8-1.7-4.2-3.6-4.2-6.3.1-2.3 3.9-9.1 7.6-13.6 7.6-8.3 0-18.5-5.4-19.8-10.5-.9-3.6-4-3.2-6.5.8-4.9 8-16 10.1-26 5-4.8-2.4-5.8-3.5-7.1-7.1-.8-2.3-2.1-4.2-2.8-4.2-.8 0-3.7 2-6.4 4.5-6.1 5.5-11.5 7.2-17.6 5.6-5.9-1.5-9.2-3.9-10.8-7.8-1.9-4.5-4.4-4.2-6.9 1-4.2 8.6-13.7 9.8-23.6 3.1-2.8-1.9-5.3-3.4-5.6-3.4-.2 0-2.5 1.7-5 3.7-3.8 3.1-5.2 3.7-9.2 3.6-7.2-.1-14.6-4.5-17.7-10.6-1.9-3.5-4.4-3.6-4.4 0z"/><path d="M232 338c0 1.5.5 2 1.8 1.8.9-.2 1.7-1 1.7-1.8s-.8-1.6-1.7-1.8c-1.3-.2-1.8.3-1.8 1.8zM193.5 338c-.4.7-.3 1.6.3 2.2 1.4 1.4 4.5.2 4-1.5-.6-1.6-3.4-2.1-4.3-.7zM156.5 340c-.4.7-.3 1.6.3 2.2 1.4 1.4 4.5.2 4-1.5-.6-1.6-3.4-2.1-4.3-.7zM270.7 340.6c-1.4 1.4-.7 3.5 1.1 3.2.9-.2 1.7-1 1.7-1.7 0-1.6-1.8-2.5-2.8-1.5zM306.5 341c-.4.7-.3 1.6.3 2.2 1.4 1.4 4.5.2 4-1.5-.6-1.6-3.4-2.1-4.3-.7zM364.1 340.9c-1.2.8-1.3 1.2-.2 2.5 1.6 1.9 4.3.3 3.4-2-.6-1.6-1.2-1.7-3.2-.5zM505 342c0 1.5.5 2 1.8 1.8.9-.2 1.7-1 1.7-1.8s-.8-1.6-1.7-1.8c-1.3-.2-1.8.3-1.8 1.8zM379.5 343c-.4.7-.3 1.6.3 2.2 1.4 1.4 4.5.2 4-1.5-.6-1.6-3.4-2.1-4.3-.7zM428.4 344.1c-.8 1.4 1.1 3.3 2.5 2.5 1.6-1 1.3-3.6-.3-3.6-.8 0-1.8.5-2.2 1.1z"/></svg>